<?xml version="1.0" encoding="utf-8"?>
<!-- Generator: Adobe Illustrator 23.0.5, SVG Export Plug-In . SVG Version: 6.00 Build 0)  -->
<svg version="1.1" id="Capa_1" xmlns="http://www.w3.org/2000/svg" xmlns:xlink="http://www.w3.org/1999/xlink" x="0px" y="0px"
	 viewBox="0 0 166 79" style="enable-background:new 0 0 166 79;" xml:space="preserve">
<style type="text/css">
	.st0{fill-rule:evenodd;clip-rule:evenodd;fill:#FFFFFF;}
	.st1{fill-rule:evenodd;clip-rule:evenodd;fill:#F4980C;}
</style>
<path class="st0" d="M133.1,55.2c-0.3-1.8-2-3-3.8-2.7l-34.7,6l-7.7-42.8l-0.9-1.7l-8.3-8.4c-0.6-0.7-1.5-1-2.3-1h0
	c-0.8,0-1.7,0.3-2.3,1c-0.7,0.6-1,1.5-1,2.3s0.3,1.7,1,2.4l7.6,7.6l7.1,39.5c-3.6,1-6.3,4.3-6.3,8.2c0,4.7,3.8,8.5,8.5,8.5
	c4.7,0,8.5-3.8,8.5-8.5c0-0.3,0-0.7-0.1-1l12.9-2.2l19.2-3.3C132.2,58.7,133.4,57,133.1,55.2L133.1,55.2z M89.8,69.1
	c-1.9,0-3.5-1.6-3.5-3.5c0-1.9,1.6-3.5,3.5-3.5c1.9,0,3.5,1.6,3.5,3.5C93.4,67.5,91.8,69.1,89.8,69.1z"/>
<path class="st0" d="M95.9,54.6c0.2,0.9,1,1.4,1.8,1.3l60.4-10.4c0.9-0.1,1.4-1,1.3-1.8l-6.9-38.5c-0.2-0.9-1-1.4-1.8-1.3
	c-27.4,4.7-34,5.9-60.4,10.4c-0.9,0.1-1.4,1-1.3,1.8L95.9,54.6z"/>
<path class="st0" d="M25.8,36.9c0.4,0,0.6-0.3,0.6-0.6c0-5.8-4-10.9-10.5-10.9c-6.5,0-10.2,5.4-10.2,10.3c0,3.3,1.6,6.9,4.9,9.6
	c3.3,2.6,6,4.8,6,5.9c0,1.1-0.4,1.6-1.1,1.6c-1.2,0-2-2.1-2.2-4c0-0.4-0.2-0.6-0.6-0.6l-6.7,0.3c-0.4,0-0.6,0.2-0.6,0.5
	C5.3,56.7,8.7,62,16.1,62c6.4,0,10.2-5.2,10.2-11.7c0-3.6-2.4-7.1-5.5-9.2c-2.9-2-5.2-3.7-5.2-5.3c0-0.5,0.2-0.9,0.7-0.9
	c0.7,0,1.2,0.6,1.5,1.7c0.1,0.4,0.3,0.5,0.6,0.5L25.8,36.9z"/>
<path class="st0" d="M27,61.2c0,0.4,0.3,0.7,0.6,0.7h7.5c0.2,0,0.4-0.2,0.4-0.5V48.7c0-0.2,0.1-0.4,0.3-0.4h1c0.2,0,0.3,0.2,0.3,0.4
	v12.7c0,0.2,0.2,0.5,0.4,0.5h7.7c0.2,0,0.4-0.3,0.4-0.5V25.9c0-0.2-0.2-0.4-0.5-0.4h-7.7c-0.2,0-0.4,0.2-0.4,0.4v12.7
	c0,0.1-0.2,0.3-0.4,0.3h-0.9c-0.2,0-0.3-0.1-0.3-0.3V25.9c0-0.2-0.1-0.4-0.4-0.4h-7.6c-0.3,0-0.5,0.2-0.5,0.5V61.2z"/>
<path class="st0" d="M47.6,50.9c0,7.5,4.8,11.1,10.1,11.1c5.3,0,10.1-3.6,10.1-11.1V36.5c0-7.5-4.7-11.2-10.1-11.2
	c-5.4,0-10.1,3.6-10.1,11.2V50.9L47.6,50.9z M56.9,36.7c0-0.7,0.2-1.3,0.8-1.3c0.5,0,0.8,0.7,0.8,1.3v14.1c0,0.7-0.2,1.3-0.8,1.3
	c-0.5,0-0.8-0.5-0.8-1.3V36.7z"/>
<path class="st0" d="M68.4,61c0,0.5,0.3,0.9,0.8,0.9h8.5c0.5,0,0.8-0.3,0.8-0.7V45.8c0-0.6,0.2-0.6,2.6-0.6c4.7,0,8.7-4.5,8.7-9
	c0-9.2-7.2-10.8-9.4-10.8H69.1c-0.4,0-0.7,0.3-0.7,0.8V61L68.4,61z M78.5,35c0-0.1,0-0.3,0.1-0.4c0.1,0,0.2,0,0.3,0
	c0.6,0,1,0.5,1,1.3v2c0,1-0.3,1.6-1,1.6c-0.3,0-0.5-0.3-0.5-0.5V35z"/>
<path class="st1" d="M97.6,49.5c0.1,0.3,0.3,0.5,0.5,0.5l6-1c0.3,0,0.5-0.3,0.4-0.6l-1.3-7c-0.1-0.4,0-0.6,0.1-0.6
	c0.1,0,0.3,0.1,0.5,0.5l3,6.9c0.1,0.2,0.3,0.4,0.5,0.3l7.4-1.3c0.3,0,0.4-0.3,0.3-0.6L110,17.8c0-0.3-0.3-0.5-0.6-0.5l-6,1
	c-0.3,0-0.4,0.3-0.4,0.6l1.6,8.9c0.1,0.4,0,0.5-0.1,0.6c-0.1,0-0.2-0.1-0.4-0.4l-4-8.5c-0.1-0.3-0.4-0.4-0.6-0.4l-6.7,1.2
	c-0.2,0-0.4,0.3-0.3,0.6L97.6,49.5z"/>
<path class="st1" d="M114.5,38c1.1,6.2,5.5,8.4,9.9,7.7c4.4-0.7,7.7-4.4,6.6-10.5L129,23.4c-1.1-6.2-5.5-8.5-9.9-7.7
	c-4.4,0.8-7.7,4.4-6.6,10.6L114.5,38L114.5,38z M120.1,25c-0.1-0.6,0-1.1,0.4-1.2c0.4-0.1,0.7,0.4,0.8,1l2.1,11.5
	c0.1,0.6,0,1.1-0.5,1.1c-0.4,0.1-0.7-0.3-0.8-0.9L120.1,25z"/>
<path class="st1" d="M127.5,14.2c-0.3,0-0.4,0.2-0.3,0.6l9,28.2c0.1,0.3,0.4,0.5,0.6,0.4l5.9-1c0.2,0,0.3-0.3,0.4-0.6l-0.3-9.8
	c0-0.4,0-0.7,0.2-0.7c0.2,0,0.3,0.2,0.4,0.6l3.2,9.4c0.1,0.2,0.3,0.4,0.6,0.4l5.8-1c0.2,0,0.4-0.3,0.4-0.7l-1.4-29.3
	c0-0.3-0.2-0.5-0.6-0.5l-6.4,1.1c-0.2,0-0.4,0.3-0.4,0.6l0.9,9.6c0,0.4-0.1,0.8-0.2,0.8c-0.2,0-0.3-0.3-0.5-0.7l-2.7-9.3
	c-0.1-0.2-0.4-0.4-0.6-0.4l-4.1,0.7c-0.3,0-0.4,0.3-0.4,0.6l0.7,9.6c0,0.4-0.1,0.8-0.2,0.8c-0.2,0-0.3-0.3-0.5-0.7l-2.6-9.3
	c-0.1-0.3-0.4-0.5-0.7-0.4L127.5,14.2z"/>
</svg>
