<?xml version="1.0" encoding="utf-8"?>
<!-- Generator: Adobe Illustrator 23.0.5, SVG Export Plug-In . SVG Version: 6.00 Build 0)  -->
<svg version="1.1" id="Capa_1" xmlns="http://www.w3.org/2000/svg" xmlns:xlink="http://www.w3.org/1999/xlink" x="0px" y="0px"
	 viewBox="0 0 512 512" style="enable-background:new 0 0 512 512;" xml:space="preserve">
<style type="text/css">
	.st0{fill:#636978;}
	.st1{fill:#414952;}
	.st2{fill:#23272B;}
	.st3{fill-rule:evenodd;clip-rule:evenodd;fill:#FFFFFF;}
	.st4{fill-rule:evenodd;clip-rule:evenodd;fill:#F89926;}
</style>
<g>
	<path class="st0" d="M433.7,340.9H78.3c-24.7,0-44.7-20-44.7-44.7V90.6c0-24.7,20-44.7,44.7-44.7h355.4c24.7,0,44.7,20,44.7,44.7
		V296C478.4,320.8,458.4,340.9,433.7,340.9z"/>
</g>
<g>
	<path class="st1" d="M33.6,113h444.8v67.5H33.6V113z"/>
</g>
<g>
	<path class="st2" d="M256,113h222.4v67.5H256V113z"/>
</g>
<path class="st3" d="M415.5,292c-0.2-1.3-1.6-2.3-2.9-2.1l-26.3,4.7l-6.1-32.5l-0.7-1.3l-6.3-6.3c-0.5-0.5-1.1-0.7-1.8-0.7l0,0
	c-0.6,0-1.3,0.2-1.8,0.7c-0.5,0.5-0.7,1.1-0.7,1.8c0,0.6,0.2,1.3,0.7,1.8l5.8,5.7l5.6,29.9c-2.8,0.7-4.7,3.3-4.7,6.3
	c0,3.5,2.9,6.4,6.5,6.4c3.5,0,6.4-2.9,6.4-6.5c0-0.2,0-0.5,0-0.7l9.8-1.7l14.5-2.5C414.8,294.7,415.7,293.4,415.5,292L415.5,292z
	 M382.7,302.8c-1.5,0-2.7-1.2-2.7-2.7s1.2-2.7,2.7-2.7c1.5,0,2.7,1.2,2.7,2.7S384.1,302.8,382.7,302.8z"/>
<path class="st3" d="M387.3,291.8c0.1,0.6,0.7,1.1,1.5,1l45.8-8.2c0.6-0.1,1.1-0.7,1-1.3L430,254c-0.1-0.6-0.7-1.1-1.5-1
	c-20.7,3.8-25.8,4.6-45.8,8.2c-0.6,0.1-1.1,0.7-1,1.3L387.3,291.8z"/>
<path class="st3" d="M333.9,278.7c0.2,0,0.5-0.2,0.5-0.5c0-4.4-3.2-8.2-8-8.2c-5,0-7.8,4.1-7.6,7.9c0,2.5,1.2,5.2,3.8,7.3
	c2.4,1.9,4.6,3.6,4.6,4.5s-0.4,1.2-0.8,1.2c-0.8,0-1.6-1.6-1.7-3c0-0.4-0.2-0.5-0.5-0.5l-5.1,0.2c-0.2,0-0.5,0.2-0.5,0.4
	c0,5.9,2.7,9.9,8.2,9.9c4.8,0,7.8-4,7.8-9c0-2.7-1.8-5.3-4.2-7c-2.2-1.5-4-2.8-4-4c0-0.4,0.1-0.6,0.6-0.7c0.5,0,0.8,0.5,1.1,1.3
	c0.1,0.2,0.2,0.4,0.5,0.4L333.9,278.7z"/>
<path class="st3" d="M335,297.1c0,0.2,0.2,0.6,0.5,0.6h5.7c0.1,0,0.4-0.2,0.4-0.4l-0.1-9.7c0-0.1,0.1-0.2,0.2-0.2h0.8
	c0.1,0,0.2,0.1,0.2,0.2l0.1,9.6c0,0.2,0.1,0.4,0.4,0.4h5.8c0.1,0,0.2-0.2,0.2-0.4l-0.1-26.9c0-0.2-0.1-0.4-0.4-0.4H343
	c-0.1,0-0.2,0.1-0.2,0.4l0.1,9.6c0,0.1-0.1,0.2-0.4,0.2h-0.7c-0.1,0-0.2-0.1-0.2-0.2l-0.1-9.7c0-0.2-0.1-0.2-0.4-0.2h-5.8
	c-0.2,0-0.4,0.1-0.4,0.4L335,297.1z"/>
<path class="st3" d="M350.5,289.3c0,5.7,3.6,8.4,7.8,8.4c4,0,7.6-2.8,7.6-8.5l-0.1-10.9c0-5.7-3.6-8.5-7.8-8.4
	c-4.1,0-7.6,2.8-7.6,8.5L350.5,289.3L350.5,289.3z M357.6,278.4c0-0.5,0.1-1,0.6-1c0.4,0,0.6,0.5,0.6,1l0.1,10.7c0,0.6-0.1,1-0.6,1
	c-0.4,0-0.6-0.4-0.6-1L357.6,278.4z"/>
<path class="st3" d="M366.4,296.8c0,0.4,0.2,0.6,0.6,0.6h6.4c0.4,0,0.6-0.2,0.6-0.5l-0.1-11.6c0-0.5,0.1-0.5,1.9-0.5
	c3.5,0,6.5-3.4,6.5-6.9c0-6.9-5.5-8.1-7.2-8.1h-8.6c-0.4,0-0.5,0.2-0.5,0.6L366.4,296.8L366.4,296.8z M373.9,277
	c0-0.1,0-0.2,0.1-0.2s0.1,0,0.2,0c0.5,0,0.7,0.4,0.7,1v1.5c0,0.7-0.2,1.2-0.7,1.2c-0.2,0-0.4-0.2-0.4-0.4L373.9,277z"/>
<path class="st4" d="M388.5,287.9c0,0.2,0.2,0.4,0.4,0.4l4.6-0.8c0.2,0,0.4-0.2,0.4-0.5l-1-5.3c0-0.2,0-0.5,0.1-0.5
	c0.1,0,0.2,0.1,0.4,0.4l2.3,5.2c0.1,0.1,0.2,0.2,0.4,0.2l5.6-1c0.2,0,0.2-0.2,0.2-0.5l-4-21.8c0-0.2-0.2-0.4-0.5-0.4l-4.5,0.8
	c-0.2,0-0.4,0.2-0.2,0.5l1.2,6.8c0,0.2,0,0.4-0.1,0.5c0,0-0.1-0.1-0.2-0.4l-3-6.4c-0.1-0.2-0.2-0.4-0.5-0.2l-5.1,0.8
	c-0.1,0-0.2,0.2-0.2,0.5L388.5,287.9z"/>
<path class="st4" d="M401.3,279.1c0.8,4.7,4.2,6.4,7.5,5.8c3.3-0.6,5.8-3.4,5-8l-1.7-9c-0.8-4.7-4.2-6.4-7.5-5.8
	c-3.4,0.6-5.8,3.4-5,8L401.3,279.1L401.3,279.1z M405.4,269.1c-0.1-0.4,0-0.8,0.4-0.8c0.4,0,0.6,0.4,0.6,0.7l1.6,8.7
	c0.1,0.5,0,0.8-0.4,0.8c-0.4,0-0.5-0.2-0.6-0.7L405.4,269.1z"/>
<path class="st4" d="M411,261c-0.2,0-0.4,0.2-0.2,0.5l6.9,21.3c0.1,0.2,0.2,0.4,0.5,0.4l4.5-0.8c0.1,0,0.2-0.2,0.2-0.4l-0.2-7.4
	c0-0.2,0-0.5,0.1-0.6c0.1,0,0.2,0.1,0.4,0.5l2.5,7.2c0.1,0.1,0.2,0.2,0.4,0.2l4.4-0.7c0.1,0,0.4-0.2,0.4-0.5l-1.2-22.3
	c0-0.2-0.1-0.4-0.5-0.4l-4.8,0.8c-0.1,0-0.2,0.2-0.2,0.4l0.7,7.3c0,0.4,0,0.6-0.1,0.6c-0.1,0-0.2-0.2-0.4-0.5l-2.2-7
	c-0.1-0.1-0.2-0.2-0.4-0.2l-3,0.6c-0.2,0-0.2,0.2-0.2,0.5l0.6,7.3c0,0.4,0,0.6-0.1,0.6s-0.2-0.2-0.4-0.5l-1.9-7
	c-0.1-0.2-0.4-0.4-0.5-0.4L411,261z"/>
</svg>
