<?xml version="1.0" encoding="utf-8"?>
<!-- Generator: Adobe Illustrator 23.0.5, SVG Export Plug-In . SVG Version: 6.00 Build 0)  -->
<svg version="1.1" id="Capa_1" xmlns="http://www.w3.org/2000/svg" xmlns:xlink="http://www.w3.org/1999/xlink" x="0px" y="0px"
	 viewBox="0 0 512 512" style="enable-background:new 0 0 512 512;" xml:space="preserve">
<style type="text/css">
	.st0{fill:#282525;}
	.st1{fill:#332E2E;}
	.st2{fill:#FFFFFF;}
	.st3{fill:#DCE1EB;}
</style>
<path class="st0" d="M256,0.9c-80.3,0-145.5,65.2-145.5,145.5c0,123.8,145.5,238.5,145.5,238.5s145.5-115.5,145.5-238.5
	C401.5,66,336.3,0.9,256,0.9z M256,219.1c-40.2,0-72.7-32.6-72.7-72.7s32.6-72.7,72.7-72.7s72.7,32.6,72.7,72.7
	S296.2,219.1,256,219.1z"/>
<path class="st1" d="M256,384.9c0,0,145.5-115.5,145.5-238.5C401.5,66,336.3,0.9,256,0.9c-0.1,0-0.4,0-0.4,0v72.7c0.1,0,0.4,0,0.4,0
	c40.2,0,72.7,32.6,72.7,72.7s-32.6,72.7-72.7,72.7c-0.1,0-0.4,0-0.4,0L256,384.9z"/>
<path class="st2" d="M347,147.9c0,50.3-40.7,91-91,91s-91-40.7-91-91s40.7-91,91-91S347,97.6,347,147.9z"/>
<path class="st3" d="M256,56.9c-0.1,0-0.3,0-0.4,0v182c0.1,0,0.3,0,0.4,0c50.3,0,91-40.7,91-91S306.3,56.9,256,56.9z"/>
</svg>
