<?xml version="1.0" encoding="utf-8"?>
<!-- Generator: Adobe Illustrator 23.0.5, SVG Export Plug-In . SVG Version: 6.00 Build 0)  -->
<svg version="1.1" id="Layer_1" xmlns="http://www.w3.org/2000/svg" xmlns:xlink="http://www.w3.org/1999/xlink" x="0px" y="0px"
	 viewBox="0 0 512 512" style="enable-background:new 0 0 512 512;" xml:space="preserve">
<style type="text/css">
	.st0{fill:#FFC964;}
	.st1{fill:#FFFFFF;}
	.st2{fill:#13405B;}
</style>
<path class="st0" d="M217,167c5.6-11.4,19.8-34.4,49.7-51.8c41.8-24.3,57.1-77.7,59.2-92.5c2.1-15,37.9-32.5,42.2,15.7
	S343,119.5,343,119.5h101.5c31.1-4.3,35.9,46.4,5.5,47l-9.7,0.1l-0.3,2.6h5.9c24.7,0,24.7,48.4,0,48.4h-1.2
	c18.5,6.2,17.3,47.4-5.6,47.4h-6.6v0.1c15.6,3.4,14,18,14,30.2c0,20.5-53.1,31.2-66.5,34.9c-38.6,10.5-89.3-1.2-132.6-5.1l-27.2-3.1
	h-59.3V167h56H217z"/>
<path class="st1" d="M140.7,156.1h68.5v177h-68.5V156.1L140.7,156.1z"/>
<path class="st2" d="M41.4,142.2h122.1v204.6H41.4V142.2z"/>
</svg>
